M48
; DRILL file {KiCad (6.0.7)} date Sat 03 Sep 2022 21:23:39 BST
; FORMAT={-:-/ absolute / inch / decimal}
; #@! TF.CreationDate,2022-09-03T21:23:39+01:00
; #@! TF.GenerationSoftware,Kicad,Pcbnew,(6.0.7)
; #@! TF.FileFunction,Plated,1,2,PTH
FMAT,2
INCH
; #@! TA.AperFunction,Plated,PTH,ViaDrill
T1C0.0118
; #@! TA.AperFunction,Plated,PTH,ComponentDrill
T2C0.0197
; #@! TA.AperFunction,Plated,PTH,ComponentDrill
T3C0.0394
%
G90
G05
T1
X2.26Y-3.22
X2.3Y-4.16
X2.325Y-2.58
X2.6Y-2.58
X2.62Y-2.4
X2.825Y-4.55
X2.84Y-2.3
X2.85Y-2.475
X2.9Y-3.45
X2.925Y-2.575
X3.225Y-2.1774
X3.24Y-2.4
X3.25Y-2.275
X3.25Y-2.325
X3.2911Y-2.172
X3.375Y-3.075
X3.376Y-2.201
X3.425Y-3.075
X3.425Y-4.6996
X3.4385Y-2.1385
X3.45Y-2.775
X3.45Y-3.725
X3.45Y-3.875
X3.45Y-3.98
X3.46Y-3.24
X3.475Y-1.975
X3.475Y-4.65
X3.475Y-4.975
X3.48Y-4.8
X3.525Y-4.975
X3.525Y-5.025
X3.54Y-2.86
X3.5403Y-2.4322
X3.55Y-2.4
X3.55Y-3.08
X3.55Y-4.85
X3.56Y-3.28
X3.575Y-2.9746
X3.575Y-3.2
X3.575Y-5.125
X3.5847Y-2.831
X3.5989Y-4.8556
X3.6Y-2.2
X3.6035Y-3.025
X3.6097Y-2.75
X3.625Y-1.725
X3.625Y-4.825
X3.66Y-4.875
X3.675Y-1.8
X3.6785Y-2.45
X3.7197Y-2.3447
X3.725Y-2.175
X3.725Y-2.25
X3.74Y-5.14
X3.78Y-5.14
X3.7839Y-1.8978
X3.7986Y-2.2486
X3.825Y-2.3347
X3.825Y-2.4
X3.8406Y-4.7972
X3.85Y-4.75
X3.875Y-2.275
X3.9Y-4.65
X3.95Y-2.3
X3.95Y-2.35
X3.95Y-2.3965
X3.95Y-2.525
X3.975Y-5.05
X4.0Y-4.525
X4.0189Y-2.5508
X4.025Y-4.875
X4.025Y-5.05
X4.0732Y-3.55
X4.075Y-5.05
X4.125Y-2.575
X4.125Y-5.05
X4.15Y-3.5
X4.175Y-2.425
X4.18Y-4.8
X4.2401Y-2.35
X4.275Y-2.3392
X4.28Y-3.56
X4.3Y-2.275
X4.4Y-4.825
X4.475Y-2.275
X4.5Y-2.3569
X4.575Y-2.3392
X4.6Y-2.5
X4.675Y-4.55
X4.675Y-4.825
X4.7Y-2.575
X4.82Y-2.5
X4.875Y-4.55
X4.94Y-3.4
X5.255Y-2.63
X5.46Y-4.16
X5.6Y-3.32
T3
X3.1494Y-5.0
X3.2494Y-5.0
X3.25Y-4.3
X3.25Y-4.4
X3.3494Y-5.0
T2
G00X3.656Y-5.1023
M15
G01X3.6835Y-5.1023
M16
G05
G00X3.7583Y-5.0177
M15
G01X3.8017Y-5.0177
M16
G05
G00X3.8765Y-5.1023
M15
G01X3.904Y-5.1023
M16
G05
T0
M30
