%TF.GenerationSoftware,KiCad,Pcbnew,(6.0.7)*%
%TF.CreationDate,2022-10-09T23:44:08+01:00*%
%TF.ProjectId,Shocksoc-Pumpkin,53686f63-6b73-46f6-932d-50756d706b69,rev?*%
%TF.SameCoordinates,Original*%
%TF.FileFunction,Legend,Bot*%
%TF.FilePolarity,Positive*%
%FSLAX46Y46*%
G04 Gerber Fmt 4.6, Leading zero omitted, Abs format (unit mm)*
G04 Created by KiCad (PCBNEW (6.0.7)) date 2022-10-09 23:44:08*
%MOMM*%
%LPD*%
G01*
G04 APERTURE LIST*
%TA.AperFunction,Profile*%
%ADD10C,0.150000*%
%TD*%
%ADD11C,0.150000*%
%ADD12C,0.250000*%
%ADD13C,0.120000*%
G04 APERTURE END LIST*
D10*
X102498533Y-54102398D02*
X100947157Y-54481130D01*
X133881078Y-90853150D02*
X133833389Y-87362595D01*
X124675709Y-56140140D02*
X123233495Y-55565649D01*
X66997727Y-68181187D02*
X66609332Y-68558657D01*
X103970625Y-53798572D02*
X102498533Y-54102398D01*
X97676376Y-63735766D02*
X97336944Y-63688964D01*
X70497813Y-126762117D02*
X70497813Y-126762117D01*
X125928115Y-124967216D02*
X126192976Y-124952584D01*
X69787150Y-126148287D02*
X70132420Y-126454556D01*
X67332905Y-123429544D02*
X67545951Y-123719744D01*
X84480927Y-54093479D02*
X84480260Y-54096107D01*
X82341551Y-77813956D02*
X83626297Y-70732284D01*
X96977322Y-34706182D02*
X96611498Y-34658888D01*
X92683768Y-34827858D02*
X92059039Y-36066917D01*
X85148150Y-63466434D02*
X84932598Y-63492489D01*
X83626297Y-70732284D02*
X85148150Y-63466428D01*
X64609375Y-124444064D02*
X65102227Y-124358968D01*
X46896703Y-98661494D02*
X47436459Y-102123326D01*
X94457491Y-34583654D02*
X94102570Y-34608740D01*
X75913103Y-116527351D02*
X76027740Y-116633659D01*
X117356622Y-54043029D02*
X115482329Y-53700187D01*
X65872344Y-69363858D02*
X65522282Y-69792098D01*
X90603511Y-119762314D02*
X90921951Y-119866007D01*
X127688136Y-108531999D02*
X128649605Y-107475457D01*
X84160099Y-63560175D02*
X83900352Y-63584931D01*
X104937221Y-130537459D02*
X105409461Y-130144061D01*
X113521177Y-53420972D02*
X112494946Y-53318635D01*
X74702206Y-128916462D02*
X75483791Y-129123545D01*
X88917597Y-43792641D02*
X88536082Y-45028228D01*
X75286822Y-115857681D02*
X75358766Y-115944730D01*
X91394153Y-37479069D02*
X91007420Y-38343438D01*
X77129782Y-88497646D02*
X76248637Y-94922799D01*
X71110469Y-127232547D02*
X71766442Y-127657677D01*
X78396225Y-54829168D02*
X78065868Y-54734775D01*
X66078806Y-110881853D02*
X65785982Y-107710346D01*
X109305260Y-118788275D02*
X109641809Y-118735198D01*
X60183809Y-104372114D02*
X61042839Y-106035884D01*
X95661305Y-120422146D02*
X95912460Y-120421179D01*
X97377031Y-133011255D02*
X98208858Y-132933707D01*
X90597384Y-39298150D02*
X90173716Y-40331815D01*
X97717467Y-34827793D02*
X97345881Y-34762586D01*
X60827516Y-123985116D02*
X61191239Y-124110602D01*
X142173682Y-75380833D02*
X141316071Y-73137553D01*
X126184627Y-107521222D02*
X125509825Y-110298578D01*
X82243592Y-66725337D02*
X81290207Y-69777235D01*
X76716644Y-54449879D02*
X76160941Y-54374583D01*
X58156469Y-62730330D02*
X56738128Y-64218626D01*
X92916294Y-120271651D02*
X93293460Y-120310097D01*
X93748031Y-34645396D02*
X93393581Y-34693930D01*
X102086924Y-37388533D02*
X101663118Y-37043032D01*
X84485912Y-54067422D02*
X84484890Y-54072636D01*
X97101910Y-63664435D02*
X96890798Y-63656394D01*
X110289316Y-99051026D02*
X109321799Y-105726379D01*
X78978934Y-118080390D02*
X79237445Y-118082532D01*
X127714681Y-69353994D02*
X126782321Y-68357120D01*
X66166640Y-87197214D02*
X66635752Y-84406780D01*
X100655439Y-36266770D02*
X100358650Y-36051143D01*
X72768916Y-54418875D02*
X72385471Y-54479966D01*
X98301672Y-119863565D02*
X98301672Y-119863565D01*
X111268230Y-85465027D02*
X111168219Y-88893620D01*
X111781962Y-118014446D02*
X111990705Y-117890395D01*
X84633001Y-130955667D02*
X85337228Y-131300477D01*
X97090236Y-48834076D02*
X97095819Y-48335672D01*
X97176825Y-47253396D02*
X97254705Y-46667940D01*
X67214238Y-123512658D02*
X67332905Y-123429544D01*
X111431300Y-53248295D02*
X110325005Y-53215316D01*
X94813088Y-34569830D02*
X94457491Y-34583654D01*
X97468201Y-51276143D02*
X97362367Y-50930451D01*
X59606502Y-83834399D02*
X59037330Y-86463656D01*
X97721447Y-51900282D02*
X97588304Y-51599156D01*
X113708452Y-67946539D02*
X112937727Y-64675594D01*
X120475942Y-54700098D02*
X119185927Y-54406591D01*
X71222462Y-65491988D02*
X70679422Y-65730910D01*
X80809217Y-129431005D02*
X81476404Y-129318534D01*
X136682242Y-65027205D02*
X136064447Y-64298760D01*
X128387891Y-86215992D02*
X128490872Y-88883728D01*
X69652966Y-66252134D02*
X69168081Y-66534945D01*
X98470896Y-34983383D02*
X98470896Y-34983383D01*
X113725577Y-116117559D02*
X113971918Y-115727186D01*
X74232322Y-54292715D02*
X73878033Y-54308043D01*
X73610495Y-64674947D02*
X72979638Y-64858920D01*
X81200076Y-54598314D02*
X80496296Y-54731608D01*
X79936202Y-108059172D02*
X79903191Y-104788850D01*
X106872115Y-118922427D02*
X106898216Y-118924778D01*
X74708817Y-114889573D02*
X74721029Y-114928826D01*
X145196034Y-94538790D02*
X145240021Y-92531613D01*
X127333999Y-124785074D02*
X127637622Y-124711616D01*
X127947782Y-124623792D02*
X128264072Y-124520734D01*
X99800920Y-132687186D02*
X100557371Y-132518967D01*
X99889050Y-54095023D02*
X99695265Y-53994739D01*
X67400369Y-67820131D02*
X66997727Y-68181187D01*
X97822797Y-120019795D02*
X98301672Y-119863565D01*
X95375849Y-120417642D02*
X95661305Y-120422146D01*
X69774126Y-73258250D02*
X70902338Y-70432317D01*
X80417254Y-72846583D02*
X79621041Y-75934597D01*
X99900165Y-98521685D02*
X99989752Y-91708369D01*
X83900352Y-63584931D02*
X83659330Y-63613628D01*
X62631018Y-108211507D02*
X63240422Y-108845236D01*
X97142765Y-49749378D02*
X97106294Y-49305047D01*
X68788989Y-76060242D02*
X69774126Y-73258250D01*
X84488619Y-54056905D02*
X84487831Y-54059549D01*
X68251328Y-67146240D02*
X67817991Y-67475233D01*
X99742996Y-40412467D02*
X100134489Y-39832858D01*
X111118333Y-78537219D02*
X111254962Y-82013251D01*
X68164769Y-124481125D02*
X68379304Y-124725894D01*
X130321611Y-105058447D02*
X131033923Y-103715009D01*
X91091442Y-91477721D02*
X90255258Y-98313130D01*
X107640236Y-118918492D02*
X107891419Y-118907854D01*
X77845849Y-129495542D02*
X78618754Y-129538337D01*
X76248637Y-94922799D02*
X75571112Y-101456683D01*
X58563171Y-98491695D02*
X58944191Y-100587747D01*
X115296426Y-77439574D02*
X114879673Y-74320515D01*
X133419365Y-61648193D02*
X132014643Y-60478696D01*
X98725345Y-53291785D02*
X98539763Y-53105342D01*
X128336206Y-94165234D02*
X128093077Y-96799019D01*
X89635802Y-105186706D02*
X89423084Y-108651001D01*
X80264134Y-117900526D02*
X80535082Y-117808259D01*
X88422177Y-132327722D02*
X89257446Y-132505830D01*
X101207537Y-36684349D02*
X100655439Y-36266770D01*
X84932598Y-63492489D02*
X84688132Y-63515661D01*
X86050641Y-52726890D02*
X85786627Y-53042883D01*
X111071097Y-131027003D02*
X111288176Y-131020166D01*
X70156501Y-65984207D02*
X69652966Y-66252134D01*
X145240021Y-92531613D02*
X145196375Y-90488273D01*
X77632617Y-117748259D02*
X77795599Y-117817514D01*
X66078806Y-110881853D02*
X66078806Y-110881853D01*
X109961423Y-118673420D02*
X110264785Y-118603143D01*
X84486489Y-54064806D02*
X84485912Y-54067422D01*
X115832866Y-83581906D02*
X115611448Y-80524033D01*
X79621041Y-75934597D02*
X78897878Y-79042493D01*
X124166142Y-124827168D02*
X124541474Y-124892893D01*
X73933614Y-128666898D02*
X74702206Y-128916462D01*
X112554969Y-117477861D02*
X112886345Y-117171229D01*
X142918571Y-77607809D02*
X142173682Y-75380833D01*
X63240422Y-108845236D02*
X63889875Y-109430669D01*
X138076311Y-116211544D02*
X138974178Y-114900421D01*
X67762669Y-55989329D02*
X66068923Y-56816812D01*
X70132420Y-126454556D02*
X70497813Y-126762117D01*
X133394104Y-95989107D02*
X133632080Y-94301792D01*
X76595428Y-117113330D02*
X76774828Y-117247630D01*
X48125999Y-80313733D02*
X47308234Y-84030226D01*
X106898216Y-118924778D02*
X106929744Y-118926817D01*
X87564466Y-49212751D02*
X87481405Y-49585020D01*
X82690672Y-129680293D02*
X83309127Y-130147434D01*
X131432639Y-75799118D02*
X130817854Y-74343711D01*
X93393581Y-34693930D02*
X93038924Y-34754648D01*
X103868196Y-131243398D02*
X104422836Y-130904030D01*
X138932034Y-68208789D02*
X138405960Y-67372917D01*
X99911370Y-84917937D02*
X99697213Y-78073929D01*
X99303809Y-53756242D02*
X99108596Y-53616443D01*
X62884236Y-124470196D02*
X63498556Y-124507653D01*
X107118922Y-118930793D02*
X107257504Y-118929545D01*
X144206460Y-102156199D02*
X144569625Y-100318506D01*
X61733478Y-77038419D02*
X61217459Y-78450418D01*
X75003130Y-115470988D02*
X75050375Y-115541549D01*
X98990344Y-63919332D02*
X98990344Y-63919328D01*
X73610495Y-64674947D02*
X73610495Y-64674947D01*
X110825491Y-118437911D02*
X111084201Y-118343364D01*
X126604507Y-75131637D02*
X127270590Y-77984753D01*
X137279481Y-65782278D02*
X136682242Y-65027205D01*
X96523861Y-133057825D02*
X97377031Y-133011255D01*
X75608488Y-116223660D02*
X75703670Y-116322261D01*
X110740972Y-64420675D02*
X110339094Y-64382414D01*
X93212547Y-77752525D02*
X92093992Y-84638259D01*
X100875681Y-38825390D02*
X101498372Y-38054658D01*
X109934964Y-130945116D02*
X110396612Y-130998923D01*
X114879673Y-74320515D02*
X114353058Y-71158841D01*
X110339094Y-64382414D02*
X110024474Y-64361644D01*
X91000652Y-132780615D02*
X91907398Y-132881011D01*
X109470613Y-130868283D02*
X109934964Y-130945116D01*
X65568704Y-104615945D02*
X65432600Y-101590230D01*
X98676973Y-35045907D02*
X98569610Y-35009243D01*
X66609332Y-68558657D02*
X66234449Y-68952796D01*
X78897878Y-79042493D02*
X78244075Y-82171489D01*
X98186832Y-52680263D02*
X98021940Y-52440043D01*
X75158719Y-115693020D02*
X75220204Y-115773747D01*
X106805933Y-118898584D02*
X106804442Y-118901567D01*
X75220204Y-115773747D02*
X75286822Y-115857681D01*
X106367333Y-129943576D02*
X106958540Y-130165893D01*
X100358650Y-36051143D02*
X100056275Y-35839089D01*
X75703670Y-116322261D02*
X75805143Y-116423521D01*
X80275162Y-94873126D02*
X80549289Y-91522756D01*
X113466180Y-116489446D02*
X113725577Y-116117559D01*
X144082730Y-82002922D02*
X143553875Y-79816000D01*
X69168081Y-66534945D02*
X68701113Y-66832895D01*
X99108596Y-53616443D02*
X98915365Y-53461888D01*
X128471224Y-91530140D02*
X128336206Y-94165234D01*
X112494946Y-53318635D02*
X111431300Y-53248295D01*
X128490872Y-88883728D02*
X128471224Y-91530140D01*
X102086924Y-37388533D02*
X102086924Y-37388533D01*
X87073573Y-50892660D02*
X86956457Y-51176371D01*
X70497813Y-126762117D02*
X71110469Y-127232547D01*
X93692227Y-120342190D02*
X94115896Y-120368672D01*
X84487831Y-54059549D02*
X84487125Y-54062182D01*
X98914553Y-35148601D02*
X98792211Y-35092614D01*
X110396612Y-130998923D02*
X110624577Y-131015841D01*
X123346194Y-124604236D02*
X123565259Y-124675904D01*
X126747983Y-124892360D02*
X127037317Y-124845033D01*
X131033923Y-103715009D02*
X131664959Y-102292970D01*
X97588304Y-51599156D02*
X97468201Y-51276143D01*
X114687285Y-114461465D02*
X115209995Y-108049459D01*
X77297763Y-117580293D02*
X77466637Y-117669342D01*
X108951094Y-118832445D02*
X109305260Y-118788275D01*
X76027740Y-116633659D02*
X76149250Y-116742353D01*
X112349518Y-130931969D02*
X113374407Y-130783041D01*
X97095819Y-48335672D02*
X97124273Y-47809043D01*
X101498372Y-38054658D02*
X102086924Y-37388533D01*
X108187170Y-118893251D02*
X108187170Y-118893251D01*
X73515700Y-54333673D02*
X73145827Y-54370364D01*
X62233073Y-124375937D02*
X62563146Y-124430665D01*
X127749095Y-99441503D02*
X127311521Y-102102693D01*
X61894246Y-124305015D02*
X62233073Y-124375937D01*
X131981245Y-77320686D02*
X131432639Y-75799118D01*
X109321799Y-105726379D02*
X108143107Y-112334745D01*
X66614031Y-123849320D02*
X66867962Y-123719467D01*
X77466637Y-117669342D02*
X77632617Y-117748259D01*
X115650942Y-101819612D02*
X115945091Y-95707812D01*
X71200966Y-54746301D02*
X69475869Y-55296796D01*
X105837664Y-129724214D02*
X105837664Y-129724214D01*
X124746443Y-124920245D02*
X124962409Y-124942767D01*
X98208858Y-132933707D02*
X99017451Y-132825558D01*
X92093992Y-84638259D02*
X91091442Y-91477721D01*
X124735935Y-66723644D02*
X123623686Y-66104074D01*
X97254705Y-46667940D02*
X97359141Y-46051882D01*
X119185927Y-54406591D02*
X117356622Y-54043029D01*
X49258614Y-76628694D02*
X48125999Y-80313733D01*
X62563146Y-124430665D02*
X62884236Y-124470196D01*
X106822210Y-118888731D02*
X106812888Y-118893138D01*
X100557371Y-132518967D02*
X101284916Y-132321281D01*
X83956768Y-130571939D02*
X84633001Y-130955667D01*
X70902338Y-70432317D02*
X72179252Y-67574023D01*
X79909987Y-117996771D02*
X80097041Y-117950039D01*
X88189277Y-46285822D02*
X87886851Y-47554035D01*
X133079292Y-97640398D02*
X133394104Y-95989107D01*
X95651239Y-133073039D02*
X96523861Y-133057825D01*
X89223148Y-115660991D02*
X89248518Y-119217241D01*
X93293460Y-120310097D02*
X93692227Y-120342190D01*
X134773521Y-62921139D02*
X133419365Y-61648193D01*
X77126100Y-117480639D02*
X77297763Y-117580293D01*
X115209995Y-108049459D02*
X115650942Y-101819612D01*
X96672766Y-120360524D02*
X96826444Y-120330646D01*
X92683768Y-34827859D02*
X92683768Y-34827858D01*
X64579406Y-109966272D02*
X65309041Y-110450512D01*
X136064447Y-64298760D02*
X135427679Y-63596789D01*
X83358959Y-63667797D02*
X83281100Y-63689672D01*
X125789109Y-67477498D02*
X124735935Y-66723644D01*
X82549437Y-54369001D02*
X81883311Y-54477878D01*
X71200966Y-54746301D02*
X71200966Y-54746301D01*
X144508272Y-84166093D02*
X144082730Y-82002922D01*
X87638472Y-48821475D02*
X87564466Y-49212751D01*
X129582434Y-123938836D02*
X130742353Y-123264594D01*
X79374327Y-129541470D02*
X80106503Y-129505505D01*
X97124668Y-120252507D02*
X97443625Y-120149166D01*
X122282520Y-125667447D02*
X122696719Y-125081158D01*
X115482329Y-53700187D02*
X114515227Y-53549944D01*
X65785982Y-107710346D02*
X65568704Y-104615945D01*
X95169654Y-34566962D02*
X94813088Y-34569830D01*
X68876837Y-125262821D02*
X69158882Y-125549859D01*
X135132861Y-119709457D02*
X136152517Y-118618545D01*
X123623686Y-66104074D02*
X123623686Y-66104074D01*
X86317325Y-52357326D02*
X86050641Y-52726890D01*
X111561753Y-118131427D02*
X111781962Y-118014446D01*
X110552580Y-118524572D02*
X110825491Y-118437911D01*
X67941299Y-78846714D02*
X68788989Y-76060242D01*
X92059039Y-36066917D02*
X91394153Y-37479069D01*
X79237445Y-118082532D02*
X79479350Y-118066792D01*
X137134712Y-117451746D02*
X138076311Y-116211544D01*
X111288176Y-131020166D02*
X112349518Y-130931969D01*
X140342604Y-70880453D02*
X140342604Y-70880453D01*
X97198420Y-50167861D02*
X97142765Y-49749378D01*
X61191239Y-124110602D02*
X61546892Y-124216903D01*
X127637622Y-124711616D02*
X127947782Y-124623792D01*
X92557425Y-120226109D02*
X92916294Y-120271651D01*
X66234449Y-68952796D02*
X65872344Y-69363858D01*
X127270590Y-77984753D02*
X127785009Y-80776512D01*
X86068855Y-131608228D02*
X86827286Y-131880780D01*
X75102174Y-115615590D02*
X75158719Y-115693020D01*
X75241890Y-54300953D02*
X74914753Y-54289929D01*
X96890798Y-63656394D02*
X96623131Y-63659058D01*
X109641809Y-118735198D02*
X109961423Y-118673420D01*
X84876939Y-53840254D02*
X84593677Y-54007349D01*
X99697213Y-78073929D02*
X98990344Y-63919332D01*
X125509825Y-110298578D02*
X125509825Y-110298578D01*
X87638472Y-48821475D02*
X87638472Y-48821475D01*
X54126043Y-67444095D02*
X52947412Y-69167088D01*
X73145827Y-54370364D02*
X72768916Y-54418875D01*
X73184080Y-128374288D02*
X73933614Y-128666898D01*
X64537022Y-71182438D02*
X63926944Y-72199895D01*
X93038924Y-34754648D02*
X92683768Y-34827859D01*
X69158882Y-125549859D02*
X69462479Y-125845868D01*
X97491362Y-45404430D02*
X97491362Y-45404430D01*
X115308810Y-130318471D02*
X116215319Y-130010568D01*
X124788314Y-69201306D02*
X125779501Y-72207157D01*
X79768534Y-54879057D02*
X79013354Y-55041959D01*
X81290207Y-69777235D02*
X80417254Y-72846583D01*
X62792587Y-74461340D02*
X62256563Y-75709406D01*
X124541474Y-124892893D02*
X124746443Y-124920245D01*
X94761057Y-133056520D02*
X94761057Y-133056520D01*
X114361338Y-130577252D02*
X115308810Y-130318471D01*
X74721029Y-114928826D02*
X74738612Y-114976799D01*
X111276865Y-64479947D02*
X110740972Y-64420675D01*
X136152517Y-118618545D02*
X137134712Y-117451746D01*
X130572015Y-59411426D02*
X129104146Y-58445159D01*
X84482079Y-54088246D02*
X84480927Y-54093479D01*
X101981662Y-132094503D02*
X102645718Y-131839012D01*
X138974178Y-114900421D02*
X139825178Y-113520860D01*
X63889875Y-109430669D02*
X64579406Y-109966272D01*
X121287639Y-126804882D02*
X121812326Y-126243312D01*
X78065868Y-54734775D02*
X77673134Y-54636047D01*
X92213551Y-120172730D02*
X92557425Y-120226109D01*
X97362367Y-50930451D02*
X97272030Y-50561288D01*
X49258614Y-76628694D02*
X49258614Y-76628694D01*
X77673134Y-54636047D02*
X77222051Y-54539058D01*
X92836777Y-132959221D02*
X93788196Y-133017104D01*
X78618754Y-129538337D02*
X79374327Y-129541470D01*
X91007420Y-38343438D02*
X90597384Y-39298150D01*
X111084201Y-118343364D02*
X111329394Y-118241135D01*
X98470896Y-34983383D02*
X97717467Y-34827793D01*
X72979638Y-64858920D02*
X72371836Y-65056247D01*
X87886851Y-47554035D02*
X87638472Y-48821475D01*
X96623131Y-63659058D02*
X95596224Y-63673356D01*
X99459496Y-35450101D02*
X99177454Y-35285366D01*
X80051149Y-111317139D02*
X79936202Y-108059172D01*
X78853703Y-54980665D02*
X78396225Y-54829168D01*
X100134489Y-39832858D02*
X100875681Y-38825390D01*
X83549562Y-63629988D02*
X83448942Y-63647973D01*
X89248518Y-119217241D02*
X89606057Y-119374538D01*
X97953233Y-43862848D02*
X98257437Y-43116328D01*
X139431222Y-69071901D02*
X138932034Y-68208789D01*
X93788196Y-133017104D02*
X94761057Y-133056520D01*
X61179970Y-60038061D02*
X59639602Y-61334445D01*
X132462784Y-78899898D02*
X131981245Y-77320686D01*
X95527484Y-34574741D02*
X95169654Y-34566962D01*
X97345881Y-34762586D02*
X96977322Y-34706182D01*
X109136588Y-64369071D02*
X109136588Y-64369071D01*
X99017451Y-132825558D02*
X99800920Y-132687186D01*
X97336944Y-63688964D02*
X97101910Y-63664435D01*
X84479517Y-54098745D02*
X84479517Y-54098745D01*
X97694736Y-44627268D02*
X97953233Y-43862848D01*
X48204372Y-105451841D02*
X49185994Y-108619577D01*
X113971918Y-115727186D02*
X114210670Y-115319958D01*
X126641839Y-109475877D02*
X127688136Y-108531999D01*
X105409461Y-130144061D02*
X105837664Y-129724214D01*
X110024474Y-64361644D02*
X109750354Y-64354843D01*
X107430103Y-118925584D02*
X107640236Y-118918492D01*
X72371836Y-65056247D02*
X71786355Y-65267185D01*
X75358766Y-115944730D02*
X75436230Y-116034804D01*
X83448942Y-63647973D02*
X83358959Y-63667797D01*
X77222051Y-54539058D02*
X76716644Y-54449879D01*
X64074210Y-124496285D02*
X64609375Y-124444064D01*
X84483064Y-54083037D02*
X84482079Y-54088246D01*
X83281100Y-63689672D02*
X83281100Y-63689672D01*
X85337228Y-131300477D02*
X86068855Y-131608228D01*
X110434668Y-71508094D02*
X110848262Y-75035857D01*
X114687285Y-114461465D02*
X114687285Y-114461465D01*
X71995996Y-54554394D02*
X71600993Y-54642919D01*
X83281100Y-63689672D02*
X82243592Y-66725337D01*
X78704655Y-118056593D02*
X78978934Y-118080390D01*
X74708817Y-114889573D02*
X74708817Y-114889573D01*
X72179252Y-67574023D02*
X73610495Y-64674947D01*
X117899434Y-129262874D02*
X118674034Y-128830822D01*
X96134247Y-120414636D02*
X96331604Y-120402416D01*
X99695265Y-53994739D02*
X99499775Y-53882076D01*
X132014643Y-60478696D02*
X130572015Y-59411426D01*
X50366877Y-111599071D02*
X51732572Y-114362863D01*
X73610495Y-64674947D02*
X73610495Y-64674947D01*
X132993713Y-121653693D02*
X134078881Y-120722001D01*
X107010841Y-118929744D02*
X107118922Y-118930793D01*
X112937727Y-64675601D02*
X111276865Y-64479947D01*
X76951753Y-117369909D02*
X77126100Y-117480639D01*
X60333284Y-81159229D02*
X59606502Y-83834399D01*
X123623686Y-66104074D02*
X124788314Y-69201306D01*
X62256563Y-75709406D02*
X61733478Y-77038419D01*
X114515227Y-53549944D02*
X113521177Y-53420972D01*
X139901939Y-69962404D02*
X139431222Y-69071901D01*
X47436459Y-102123326D02*
X48204372Y-105451841D01*
X112376525Y-117621898D02*
X112554969Y-117477861D01*
X128155024Y-83516922D02*
X128387891Y-86215992D01*
X56794039Y-121085403D02*
X57759292Y-121940995D01*
X100947157Y-54481130D02*
X100622571Y-54388212D01*
X111990705Y-117890395D02*
X112188665Y-117759477D01*
X106834435Y-118916991D02*
X106851001Y-118919814D01*
X75805143Y-116423521D02*
X75913103Y-116527351D01*
X74578063Y-54286930D02*
X74232322Y-54292715D01*
X76413659Y-116966539D02*
X76595428Y-117113330D01*
X84479517Y-54098745D02*
X83201889Y-54270385D01*
X91557577Y-120039494D02*
X91881369Y-120110772D01*
X96975432Y-120294675D02*
X97124668Y-120252507D01*
X67973690Y-124255566D02*
X68164769Y-124481125D01*
X80535082Y-117808259D02*
X80250089Y-114565814D01*
X116215319Y-130010568D02*
X117079361Y-129657412D01*
X117079361Y-129657412D02*
X117899434Y-129262874D01*
X62770017Y-58848268D02*
X61179970Y-60038061D01*
X99754497Y-35636709D02*
X99459496Y-35450101D01*
X98359849Y-52901765D02*
X98186832Y-52680263D01*
X96331604Y-120402416D02*
X96509465Y-120384413D01*
X99989752Y-91708369D02*
X99911370Y-84917937D01*
X113374407Y-130783041D02*
X114361338Y-130577252D01*
X114210670Y-115319958D02*
X114687285Y-114461465D01*
X96248112Y-34621012D02*
X95886872Y-34592860D01*
X142065610Y-108996372D02*
X142697779Y-107367884D01*
X80549289Y-91522756D02*
X81310388Y-84735945D01*
X106851001Y-118919814D02*
X106872115Y-118922427D01*
X61217459Y-78450418D02*
X60333284Y-81159229D01*
X84483971Y-54077837D02*
X84483064Y-54083037D01*
X58277631Y-93953218D02*
X58341056Y-96276094D01*
X61546892Y-124216903D02*
X61894246Y-124305015D01*
X76272302Y-129288710D02*
X77061677Y-129412521D01*
X80535082Y-117808259D02*
X80535082Y-117808259D01*
X116027410Y-89649948D02*
X115968810Y-86621206D01*
X106804861Y-118904653D02*
X106807630Y-118907791D01*
X76160941Y-54374583D02*
X75558969Y-54319242D01*
X55392133Y-65792245D02*
X54126043Y-67444095D01*
X89248518Y-119217241D02*
X89248518Y-119217241D01*
X67225429Y-81626087D02*
X67941299Y-78846714D01*
X81310388Y-84735945D02*
X82341551Y-77813956D01*
X96826444Y-120330646D02*
X96975432Y-120294675D01*
X65432600Y-101590230D02*
X65383296Y-98624779D01*
X76149250Y-116742353D02*
X76277825Y-116853344D01*
X86827286Y-131880780D02*
X87611926Y-132119992D01*
X107257504Y-118929545D02*
X107430103Y-118925584D01*
X115945091Y-95707812D02*
X116027410Y-89649948D01*
X123053420Y-124488313D02*
X123053420Y-124488313D01*
X134078881Y-120722001D02*
X135132861Y-119709457D01*
X86834774Y-51443666D02*
X86580697Y-51930736D01*
X129393297Y-71665440D02*
X128585303Y-70459606D01*
X112886345Y-117171229D02*
X113188259Y-116841213D01*
X123233495Y-55565649D02*
X121829352Y-55086043D01*
X89606057Y-119374538D02*
X89948867Y-119517322D01*
X132686756Y-99247149D02*
X133079292Y-97640398D01*
X122696719Y-125081158D02*
X123053420Y-124488313D01*
X126782321Y-68357120D02*
X125789109Y-67477498D01*
X100947157Y-54481130D02*
X100947157Y-54481130D01*
X97866402Y-52180314D02*
X97721447Y-51900282D01*
X84593677Y-54007349D02*
X84488619Y-54056905D01*
X106821978Y-118914012D02*
X106834435Y-118916991D01*
X77061677Y-129412521D02*
X77845849Y-129495542D01*
X76277825Y-116853344D02*
X76413659Y-116966539D01*
X106812888Y-118893138D02*
X106808895Y-118895757D01*
X140342604Y-70880453D02*
X139901939Y-69962404D01*
X65383296Y-98624779D02*
X65426421Y-95711173D01*
X58372679Y-91535337D02*
X58277631Y-93953218D01*
X67545951Y-123719744D02*
X67806543Y-124051776D01*
X65812466Y-90005811D02*
X66166640Y-87197214D01*
X74914753Y-54289929D02*
X74578063Y-54286930D01*
X126143330Y-56810740D02*
X124675709Y-56140140D01*
X119185927Y-54406591D02*
X119185927Y-54406591D01*
X95051154Y-120407770D02*
X95375849Y-120417642D01*
X99088318Y-112522821D02*
X99610418Y-105434348D01*
X65426421Y-95711173D02*
X65567602Y-92840991D01*
X94761057Y-133056520D02*
X95651239Y-133073039D01*
X90280251Y-119646333D02*
X90603511Y-119762314D01*
X96611498Y-34658888D02*
X96248112Y-34621012D01*
X75050375Y-115541549D02*
X75102174Y-115615590D01*
X142697779Y-107367884D02*
X143267401Y-105683371D01*
X79950053Y-101503111D02*
X80074730Y-98198890D01*
X128913423Y-124265453D02*
X129245674Y-124111495D01*
X98990344Y-63919328D02*
X97676376Y-63735766D01*
X57759292Y-121940995D02*
X58754494Y-122711766D01*
X61042839Y-106035884D02*
X61532254Y-106805297D01*
X144857700Y-98434719D02*
X145067548Y-96507319D01*
X63498556Y-124507653D02*
X64074210Y-124496285D01*
X108187170Y-118893251D02*
X108578625Y-118867505D01*
X98965302Y-41697633D02*
X99350128Y-41035779D01*
X65953697Y-124122046D02*
X66308667Y-123986171D01*
X101663118Y-37043032D02*
X101207537Y-36684349D01*
X49185994Y-108619577D02*
X50366877Y-111599071D01*
X70679422Y-65730910D02*
X70156501Y-65984207D01*
X76774828Y-117247630D02*
X76951753Y-117369909D01*
X59777837Y-123394284D02*
X60827516Y-123985116D01*
X56738128Y-64218626D02*
X55392133Y-65792245D01*
X110965009Y-92300102D02*
X110668681Y-95685547D01*
X58944191Y-100587747D02*
X59484331Y-102551977D01*
X128264072Y-124520734D02*
X128586088Y-124401577D01*
X75571112Y-101456683D02*
X75067681Y-108109030D01*
X128093077Y-96799019D02*
X127749095Y-99441503D01*
X46599554Y-95093806D02*
X46896703Y-98661494D01*
X97491362Y-45404430D02*
X97694736Y-44627268D01*
X106929744Y-118926817D02*
X107010841Y-118929744D01*
X106813190Y-118910928D02*
X106821978Y-118914012D01*
X111288176Y-131020166D02*
X111288176Y-131020166D01*
X74855820Y-115225362D02*
X74921528Y-115340669D01*
X108120416Y-130542872D02*
X108557433Y-130662837D01*
X75519406Y-116127811D02*
X75608488Y-116223660D01*
X124962409Y-124942767D02*
X125188964Y-124959591D01*
X85290544Y-53527979D02*
X85070440Y-53703992D01*
X130742353Y-123264594D02*
X131880491Y-122502052D01*
X113188259Y-116841213D02*
X113466180Y-116489446D01*
X106804442Y-118901567D02*
X106804861Y-118904653D01*
X78112149Y-117928930D02*
X78415447Y-118007364D01*
X81476404Y-129318534D02*
X82102000Y-129168657D01*
X87185374Y-50592101D02*
X87073573Y-50892660D01*
X109136588Y-64369071D02*
X109867470Y-67952856D01*
X103275193Y-131555184D02*
X103868196Y-131243398D01*
X130137777Y-72962980D02*
X129393297Y-71665440D01*
X75067681Y-108109030D02*
X74708817Y-114889573D01*
X50011843Y-74692027D02*
X49258614Y-76628694D01*
X67806543Y-124051776D02*
X67973690Y-124255566D01*
X81883311Y-54477878D02*
X81200076Y-54598314D01*
X125425703Y-124969853D02*
X125672222Y-124972683D01*
X63347423Y-73292183D02*
X62792587Y-74461340D01*
X102645718Y-131839012D02*
X103275193Y-131555184D01*
X111168219Y-88893620D02*
X110965009Y-92300102D01*
X63926944Y-72199895D02*
X63347423Y-73292183D01*
X138405960Y-67372917D02*
X137854581Y-66564131D01*
X79903191Y-104788850D02*
X79950053Y-101503111D01*
X137854581Y-66564131D02*
X137279481Y-65782278D01*
X127311521Y-102102693D02*
X126787612Y-104792596D01*
X125672222Y-124972683D02*
X125928115Y-124967216D01*
X90173716Y-40331815D02*
X89746083Y-41433045D01*
X80106503Y-129505505D02*
X80809217Y-129431005D01*
X90255258Y-98313130D02*
X89635802Y-105186706D01*
X68379304Y-124725894D02*
X68616818Y-124987312D01*
X129245674Y-124111495D02*
X129582434Y-123938836D01*
X109867470Y-67952856D02*
X110434668Y-71508094D01*
X61532254Y-106805297D02*
X62061638Y-107531016D01*
X80250089Y-114565814D02*
X80051149Y-111317139D01*
X99177454Y-35285366D02*
X98914553Y-35148601D01*
X82102000Y-129168657D02*
X82690672Y-129680293D01*
X107704324Y-130417177D02*
X108120416Y-130542872D01*
X127785009Y-80776512D02*
X128155024Y-83516922D01*
X89257446Y-132505830D02*
X90117136Y-132656174D01*
X121812326Y-126243312D02*
X122282520Y-125667447D01*
X95912460Y-120421179D02*
X96134247Y-120414636D01*
X129582434Y-123938836D02*
X129582434Y-123938836D01*
X101284916Y-132321281D02*
X101981662Y-132094503D01*
X128649605Y-107475457D02*
X129527134Y-106314768D01*
X100056275Y-35839089D02*
X99754497Y-35636709D01*
X110848262Y-75035857D02*
X111118333Y-78537219D01*
X46559461Y-91447724D02*
X46599554Y-95093806D01*
X127037317Y-124845033D02*
X127333999Y-124785074D01*
X127623696Y-57578672D02*
X126143330Y-56810740D01*
X96509465Y-120384413D02*
X96672766Y-120360524D01*
X145061958Y-88411251D02*
X144833636Y-86303030D01*
X111254962Y-82013251D02*
X111268230Y-85465027D01*
X132215607Y-100800845D02*
X132686756Y-99247149D01*
X77955478Y-117877581D02*
X78112149Y-117928930D01*
X58625984Y-89034726D02*
X58372679Y-91535337D01*
X98597932Y-42392870D02*
X98965302Y-41697633D01*
X115968810Y-86621206D02*
X115832866Y-83581906D01*
X125509825Y-110298578D02*
X126641839Y-109475877D01*
X141374029Y-110566353D02*
X142065610Y-108996372D01*
X83201889Y-54270385D02*
X82549437Y-54369001D01*
X80496296Y-54731608D02*
X79768534Y-54879057D01*
X79013354Y-55041959D02*
X79013354Y-55041959D01*
X87611926Y-132119992D02*
X88422177Y-132327722D01*
X67332905Y-123429544D02*
X67332905Y-123429544D01*
X86956457Y-51176371D02*
X86834774Y-51443666D01*
X143267401Y-105683371D02*
X143771340Y-103945315D01*
X123565259Y-124675904D02*
X123839656Y-124752527D01*
X66635752Y-84406780D02*
X67225429Y-81626087D01*
X79013354Y-55041959D02*
X78853703Y-54980665D01*
X125188964Y-124959591D02*
X125425703Y-124969853D01*
X77795599Y-117817514D02*
X77955478Y-117877581D01*
X114353058Y-71158841D02*
X113708452Y-67946539D01*
X84484890Y-54072636D02*
X84483971Y-54077837D01*
X83309127Y-130147434D02*
X83956768Y-130571939D01*
X73878033Y-54308043D02*
X73515700Y-54333673D01*
X74921528Y-115340669D02*
X75003130Y-115470988D01*
X89423084Y-108651001D02*
X89283435Y-112140670D01*
X72385471Y-54479966D02*
X71995996Y-54554394D01*
X98569610Y-35009243D02*
X98470896Y-34983383D01*
X143553875Y-79816000D02*
X142918571Y-77607809D01*
X84688132Y-63515661D02*
X84160099Y-63560175D01*
X106833888Y-118884706D02*
X106833888Y-118884706D01*
X66068923Y-56816812D02*
X64402187Y-57772155D01*
X82102000Y-129168657D02*
X82102000Y-129168657D01*
X50882756Y-72798144D02*
X50011843Y-74692027D01*
X110264785Y-118603143D02*
X110552580Y-118524572D01*
X51863798Y-70954134D02*
X50882756Y-72798144D01*
X79703811Y-118036947D02*
X79909987Y-117996771D01*
X108143107Y-112334745D02*
X106833888Y-118884706D01*
X94102570Y-34608740D02*
X93748031Y-34645396D01*
X125509825Y-110298578D02*
X125509825Y-110298578D01*
X87291111Y-50274263D02*
X87185374Y-50592101D01*
X85070440Y-53703992D02*
X84876939Y-53840254D01*
X88536082Y-45028228D02*
X88189277Y-46285822D01*
X141316071Y-73137553D02*
X140342604Y-70880453D01*
X74804462Y-115125796D02*
X74855820Y-115225362D01*
X97272030Y-50561288D02*
X97198420Y-50167861D01*
X66308667Y-123986171D02*
X66614031Y-123849320D01*
X91238872Y-119958153D02*
X91557577Y-120039494D01*
X129104146Y-58445159D02*
X127623696Y-57578672D01*
X106808895Y-118895757D02*
X106805933Y-118898584D01*
X85786627Y-53042883D02*
X85531267Y-53308761D01*
X67817991Y-67475233D02*
X67400369Y-67820131D01*
X120080801Y-127869660D02*
X120709963Y-127348288D01*
X46790871Y-87750710D02*
X46559461Y-91447724D01*
X98257437Y-43116328D02*
X98597932Y-42392870D01*
X126192976Y-124952584D02*
X126466401Y-124927921D01*
X123053420Y-124488313D02*
X123185703Y-124544458D01*
X87390038Y-49938713D02*
X87291111Y-50274263D01*
X74765908Y-115042699D02*
X74804462Y-115125796D01*
X65567602Y-92840991D02*
X65812466Y-90005811D01*
X97359141Y-46051882D02*
X97491362Y-45404430D01*
X145067548Y-96507319D02*
X145196034Y-94538790D01*
X133496117Y-83898251D02*
X132876368Y-80528240D01*
X71786355Y-65267185D02*
X71222462Y-65491988D01*
X71600993Y-54642919D02*
X71200966Y-54746301D01*
X129527134Y-106314768D02*
X130321611Y-105058447D01*
X91881369Y-120110772D02*
X92213551Y-120172730D01*
X144569625Y-100318506D02*
X144857700Y-98434719D01*
X59639602Y-61334445D02*
X58156469Y-62730330D01*
X90921951Y-119866007D02*
X91238872Y-119958153D01*
X87481405Y-49585020D02*
X87390038Y-49938713D01*
X75436230Y-116034804D02*
X75519406Y-116127811D01*
X58754494Y-122711766D02*
X59777837Y-123394284D01*
X74738612Y-114976799D02*
X74765908Y-115042699D01*
X128585303Y-70459606D02*
X127714681Y-69353994D01*
X75558969Y-54319242D02*
X75241890Y-54300953D01*
X94115896Y-120368672D02*
X95051154Y-120407770D01*
X89283435Y-112140670D02*
X89223148Y-115660991D01*
X76413659Y-116966539D02*
X76413659Y-116966539D01*
X145196375Y-90488273D02*
X145061958Y-88411251D01*
X58341056Y-96276094D02*
X58563171Y-98491695D01*
X95051154Y-120407770D02*
X95051154Y-120407770D01*
X107963535Y-53282898D02*
X106697893Y-53394186D01*
X112937727Y-64675594D02*
X112937727Y-64675594D01*
X51732572Y-114362863D02*
X53268630Y-116883490D01*
X98915365Y-53461888D02*
X98725345Y-53291785D01*
X144833636Y-86303030D02*
X144508272Y-84166093D01*
X132876368Y-80528240D02*
X132462784Y-78899898D01*
X71766442Y-127657677D02*
X72459668Y-128038069D01*
X53268630Y-116883490D02*
X54960602Y-119133491D01*
X89324153Y-42590450D02*
X88917597Y-43792641D01*
X83659330Y-63613628D02*
X83549562Y-63629988D01*
X80097041Y-117950039D02*
X80264134Y-117900526D01*
X98792211Y-35092614D02*
X98676973Y-35045907D01*
X108578625Y-118867505D02*
X108951094Y-118832445D01*
X119401657Y-128365128D02*
X120080801Y-127869660D01*
X140626173Y-112075343D02*
X141374029Y-110566353D01*
X65550942Y-124248970D02*
X65953697Y-124122046D01*
X95596224Y-63673356D02*
X95596224Y-63673356D01*
X109750354Y-64354843D02*
X109136588Y-64369071D01*
X92683768Y-34827859D02*
X92683768Y-34827859D01*
X106697893Y-53394186D02*
X105368667Y-53564289D01*
X112937727Y-64675594D02*
X112937727Y-64675601D01*
X95596224Y-63673356D02*
X93212547Y-77752525D01*
X109170828Y-53225063D02*
X107963535Y-53282898D01*
X99610418Y-105434348D02*
X99900165Y-98521685D01*
X110325005Y-53215316D02*
X109170828Y-53225063D01*
X123185703Y-124544458D02*
X123346194Y-124604236D01*
X143771340Y-103945315D02*
X144206460Y-102156199D01*
X64402187Y-57772155D02*
X62770017Y-58848268D01*
X99350128Y-41035779D02*
X99742996Y-40412467D01*
X59037330Y-86463656D02*
X58625984Y-89034726D01*
X85531267Y-53308761D02*
X85290544Y-53527979D01*
X128586088Y-124401577D02*
X128913423Y-124265453D01*
X90117136Y-132656174D02*
X91000652Y-132780615D01*
X65183531Y-70237772D02*
X64537022Y-71182438D01*
X66867962Y-123719467D02*
X67214238Y-123512658D01*
X104422836Y-130904030D02*
X104937221Y-130537459D01*
X108557433Y-130662837D02*
X109009467Y-130772749D01*
X106958540Y-130165893D02*
X107315063Y-130290076D01*
X105368667Y-53564289D02*
X103970625Y-53798572D01*
X139825178Y-113520860D02*
X140626173Y-112075343D01*
X78244075Y-82171489D02*
X77129782Y-88497646D01*
X106807630Y-118907791D02*
X106813190Y-118910928D01*
X100622571Y-54388212D02*
X100266592Y-54261622D01*
X72459668Y-128038069D02*
X73184080Y-128374288D01*
X112188665Y-117759477D02*
X112376525Y-117621898D01*
X69462479Y-125845868D02*
X69787150Y-126148287D01*
X65102227Y-124358968D02*
X65550942Y-124248970D01*
X78415447Y-118007364D02*
X78704655Y-118056593D01*
X97443625Y-120149166D02*
X97822797Y-120019795D01*
X126466401Y-124927921D02*
X126747983Y-124892360D01*
X123839656Y-124752527D02*
X124166142Y-124827168D01*
X69475869Y-55296796D02*
X67762669Y-55989329D01*
X65309041Y-110450512D02*
X66078806Y-110881853D01*
X109009467Y-130772749D02*
X109470613Y-130868283D01*
X99499775Y-53882076D02*
X99303809Y-53756242D01*
X130817854Y-74343711D02*
X130137777Y-72962980D01*
X126787612Y-104792596D02*
X126184627Y-107521222D01*
X125779501Y-72207157D02*
X126604507Y-75131637D01*
X97106294Y-49305047D02*
X97090236Y-48834076D01*
X106833888Y-118884706D02*
X106822210Y-118888731D01*
X75483791Y-129123545D02*
X76272302Y-129288710D01*
X110624577Y-131015841D02*
X110849652Y-131025381D01*
X59484331Y-102551977D02*
X60183809Y-104372114D01*
X68701113Y-66832895D02*
X68251328Y-67146240D01*
X79479350Y-118066792D02*
X79703811Y-118036947D01*
X80074730Y-98198890D02*
X80275162Y-94873126D01*
X84487125Y-54062182D02*
X84486489Y-54064806D01*
X89746083Y-41433045D02*
X89324153Y-42590450D01*
X110849652Y-131025381D02*
X111071097Y-131027003D01*
X98301672Y-119863565D02*
X99088318Y-112522821D01*
X120709963Y-127348288D02*
X121287639Y-126804882D01*
X84488619Y-54056905D02*
X84488619Y-54056905D01*
X84480260Y-54096107D02*
X84479517Y-54098745D01*
X98021940Y-52440043D02*
X97866402Y-52180314D01*
X86580697Y-51930736D02*
X86317325Y-52357326D01*
X133833389Y-87362595D02*
X133496117Y-83898251D01*
X62061638Y-107531016D02*
X62631018Y-108211507D01*
X65522282Y-69792098D02*
X65183531Y-70237772D01*
X52947412Y-69167088D02*
X51863798Y-70954134D01*
X118674034Y-128830822D02*
X119401657Y-128365128D01*
X89948867Y-119517322D02*
X90280251Y-119646333D01*
X47308234Y-84030226D02*
X46790871Y-87750710D01*
X60827516Y-123985116D02*
X60827516Y-123985116D01*
X54960602Y-119133491D02*
X56794039Y-121085403D01*
X68616818Y-124987312D02*
X68876837Y-125262821D01*
X61217459Y-78450418D02*
X61217459Y-78450418D01*
X107315063Y-130290076D02*
X107704324Y-130417177D01*
X100266592Y-54261622D02*
X99889050Y-54095023D01*
X98990344Y-63919332D02*
X98990344Y-63919332D01*
X98539763Y-53105342D02*
X98359849Y-52901765D01*
X131664959Y-102292970D02*
X132215607Y-100800845D01*
X111329394Y-118241135D02*
X111561753Y-118131427D01*
X110668681Y-95685547D02*
X110289316Y-99051026D01*
X121829352Y-55086043D02*
X120475942Y-54700098D01*
X135427679Y-63596789D02*
X134773521Y-62921139D01*
X97124273Y-47809043D02*
X97176825Y-47253396D01*
X105837664Y-129724214D02*
X106367333Y-129943576D01*
X115611448Y-80524033D02*
X115296426Y-77439574D01*
X95886872Y-34592860D02*
X95527484Y-34574741D01*
X133632080Y-94301792D02*
X133881078Y-90853150D01*
X91907398Y-132881011D02*
X92836777Y-132959221D01*
X107891419Y-118907854D02*
X108187170Y-118893251D01*
X131880491Y-122502052D02*
X132993713Y-121653693D01*
D11*
X93726000Y-40132000D02*
X93726000Y-41225000D01*
X91694000Y-45466000D02*
X91694000Y-44704000D01*
X91186000Y-45466000D02*
X91694000Y-45466000D01*
X91694000Y-47000000D02*
X90932000Y-47000000D01*
X90525523Y-45066000D02*
X90601714Y-45027904D01*
X90716000Y-45027904D01*
X90830285Y-45066000D01*
X90906476Y-45142190D01*
X90944571Y-45218380D01*
X90982666Y-45370761D01*
X90982666Y-45485047D01*
X90944571Y-45637428D01*
X90906476Y-45713619D01*
X90830285Y-45789809D01*
X90716000Y-45827904D01*
X90639809Y-45827904D01*
X90525523Y-45789809D01*
X90487428Y-45751714D01*
X90487428Y-45485047D01*
X90639809Y-45485047D01*
X90144571Y-45827904D02*
X90144571Y-45027904D01*
X89687428Y-45827904D01*
X89687428Y-45027904D01*
X89306476Y-45827904D02*
X89306476Y-45027904D01*
X89116000Y-45027904D01*
X89001714Y-45066000D01*
X88925523Y-45142190D01*
X88887428Y-45218380D01*
X88849333Y-45370761D01*
X88849333Y-45485047D01*
X88887428Y-45637428D01*
X88925523Y-45713619D01*
X89001714Y-45789809D01*
X89116000Y-45827904D01*
X89306476Y-45827904D01*
X90868380Y-46805904D02*
X90373142Y-46805904D01*
X90639809Y-47110666D01*
X90525523Y-47110666D01*
X90449333Y-47148761D01*
X90411238Y-47186857D01*
X90373142Y-47263047D01*
X90373142Y-47453523D01*
X90411238Y-47529714D01*
X90449333Y-47567809D01*
X90525523Y-47605904D01*
X90754095Y-47605904D01*
X90830285Y-47567809D01*
X90868380Y-47529714D01*
X90106476Y-47072571D02*
X89916000Y-47605904D01*
X89725523Y-47072571D01*
X89496952Y-46805904D02*
X89001714Y-46805904D01*
X89268380Y-47110666D01*
X89154095Y-47110666D01*
X89077904Y-47148761D01*
X89039809Y-47186857D01*
X89001714Y-47263047D01*
X89001714Y-47453523D01*
X89039809Y-47529714D01*
X89077904Y-47567809D01*
X89154095Y-47605904D01*
X89382666Y-47605904D01*
X89458857Y-47567809D01*
X89496952Y-47529714D01*
X96774000Y-46990000D02*
X94742000Y-46990000D01*
X96774000Y-44958000D02*
X96774000Y-46990000D01*
X95504000Y-45720000D02*
X94742000Y-45720000D01*
X95504000Y-44958000D02*
X95504000Y-45720000D01*
X97351809Y-41230761D02*
X97389904Y-41345047D01*
X97389904Y-41535523D01*
X97351809Y-41611714D01*
X97313714Y-41649809D01*
X97237523Y-41687904D01*
X97161333Y-41687904D01*
X97085142Y-41649809D01*
X97047047Y-41611714D01*
X97008952Y-41535523D01*
X96970857Y-41383142D01*
X96932761Y-41306952D01*
X96894666Y-41268857D01*
X96818476Y-41230761D01*
X96742285Y-41230761D01*
X96666095Y-41268857D01*
X96628000Y-41306952D01*
X96589904Y-41383142D01*
X96589904Y-41573619D01*
X96628000Y-41687904D01*
X96589904Y-41954571D02*
X97389904Y-42145047D01*
X96818476Y-42297428D01*
X97389904Y-42449809D01*
X96589904Y-42640285D01*
X97389904Y-42945047D02*
X96589904Y-42945047D01*
X96589904Y-43135523D01*
X96628000Y-43249809D01*
X96704190Y-43326000D01*
X96780380Y-43364095D01*
X96932761Y-43402190D01*
X97047047Y-43402190D01*
X97199428Y-43364095D01*
X97275619Y-43326000D01*
X97351809Y-43249809D01*
X97389904Y-43135523D01*
X97389904Y-42945047D01*
X97389904Y-43745047D02*
X96589904Y-43745047D01*
X96589904Y-44278380D02*
X96589904Y-44430761D01*
X96628000Y-44506952D01*
X96704190Y-44583142D01*
X96856571Y-44621238D01*
X97123238Y-44621238D01*
X97275619Y-44583142D01*
X97351809Y-44506952D01*
X97389904Y-44430761D01*
X97389904Y-44278380D01*
X97351809Y-44202190D01*
X97275619Y-44126000D01*
X97123238Y-44087904D01*
X96856571Y-44087904D01*
X96704190Y-44126000D01*
X96628000Y-44202190D01*
X96589904Y-44278380D01*
X96081809Y-41116476D02*
X96119904Y-41230761D01*
X96119904Y-41421238D01*
X96081809Y-41497428D01*
X96043714Y-41535523D01*
X95967523Y-41573619D01*
X95891333Y-41573619D01*
X95815142Y-41535523D01*
X95777047Y-41497428D01*
X95738952Y-41421238D01*
X95700857Y-41268857D01*
X95662761Y-41192666D01*
X95624666Y-41154571D01*
X95548476Y-41116476D01*
X95472285Y-41116476D01*
X95396095Y-41154571D01*
X95358000Y-41192666D01*
X95319904Y-41268857D01*
X95319904Y-41459333D01*
X95358000Y-41573619D01*
X95319904Y-41840285D02*
X96119904Y-42030761D01*
X95548476Y-42183142D01*
X96119904Y-42335523D01*
X95319904Y-42526000D01*
X96043714Y-43287904D02*
X96081809Y-43249809D01*
X96119904Y-43135523D01*
X96119904Y-43059333D01*
X96081809Y-42945047D01*
X96005619Y-42868857D01*
X95929428Y-42830761D01*
X95777047Y-42792666D01*
X95662761Y-42792666D01*
X95510380Y-42830761D01*
X95434190Y-42868857D01*
X95358000Y-42945047D01*
X95319904Y-43059333D01*
X95319904Y-43135523D01*
X95358000Y-43249809D01*
X95396095Y-43287904D01*
X96119904Y-44011714D02*
X96119904Y-43630761D01*
X95319904Y-43630761D01*
X96119904Y-44278380D02*
X95319904Y-44278380D01*
X96119904Y-44735523D02*
X95662761Y-44392666D01*
X95319904Y-44735523D02*
X95777047Y-44278380D01*
X92749619Y-40584380D02*
X93082952Y-40108190D01*
X93321047Y-40584380D02*
X93321047Y-39584380D01*
X92940095Y-39584380D01*
X92844857Y-39632000D01*
X92797238Y-39679619D01*
X92749619Y-39774857D01*
X92749619Y-39917714D01*
X92797238Y-40012952D01*
X92844857Y-40060571D01*
X92940095Y-40108190D01*
X93321047Y-40108190D01*
X92368666Y-40536761D02*
X92225809Y-40584380D01*
X91987714Y-40584380D01*
X91892476Y-40536761D01*
X91844857Y-40489142D01*
X91797238Y-40393904D01*
X91797238Y-40298666D01*
X91844857Y-40203428D01*
X91892476Y-40155809D01*
X91987714Y-40108190D01*
X92178190Y-40060571D01*
X92273428Y-40012952D01*
X92321047Y-39965333D01*
X92368666Y-39870095D01*
X92368666Y-39774857D01*
X92321047Y-39679619D01*
X92273428Y-39632000D01*
X92178190Y-39584380D01*
X91940095Y-39584380D01*
X91797238Y-39632000D01*
X91511523Y-39584380D02*
X90940095Y-39584380D01*
X91225809Y-40584380D02*
X91225809Y-39584380D01*
D12*
X83311904Y-123912380D02*
X82740476Y-123912380D01*
X83026190Y-124912380D02*
X83026190Y-123912380D01*
X82502380Y-123912380D02*
X81835714Y-124912380D01*
X81835714Y-123912380D02*
X82502380Y-124912380D01*
D11*
X117014047Y-126452380D02*
X117014047Y-127166666D01*
X117061666Y-127309523D01*
X117156904Y-127404761D01*
X117299761Y-127452380D01*
X117395000Y-127452380D01*
X116061666Y-127452380D02*
X116537857Y-127452380D01*
X116537857Y-126452380D01*
X115156904Y-127357142D02*
X115204523Y-127404761D01*
X115347380Y-127452380D01*
X115442619Y-127452380D01*
X115585476Y-127404761D01*
X115680714Y-127309523D01*
X115728333Y-127214285D01*
X115775952Y-127023809D01*
X115775952Y-126880952D01*
X115728333Y-126690476D01*
X115680714Y-126595238D01*
X115585476Y-126500000D01*
X115442619Y-126452380D01*
X115347380Y-126452380D01*
X115204523Y-126500000D01*
X115156904Y-126547619D01*
X114442619Y-126452380D02*
X114442619Y-127166666D01*
X114490238Y-127309523D01*
X114585476Y-127404761D01*
X114728333Y-127452380D01*
X114823571Y-127452380D01*
X113490238Y-127452380D02*
X113966428Y-127452380D01*
X113966428Y-126452380D01*
X112585476Y-127357142D02*
X112633095Y-127404761D01*
X112775952Y-127452380D01*
X112871190Y-127452380D01*
X113014047Y-127404761D01*
X113109285Y-127309523D01*
X113156904Y-127214285D01*
X113204523Y-127023809D01*
X113204523Y-126880952D01*
X113156904Y-126690476D01*
X113109285Y-126595238D01*
X113014047Y-126500000D01*
X112871190Y-126452380D01*
X112775952Y-126452380D01*
X112633095Y-126500000D01*
X112585476Y-126547619D01*
X111871190Y-126452380D02*
X111871190Y-127166666D01*
X111918809Y-127309523D01*
X112014047Y-127404761D01*
X112156904Y-127452380D01*
X112252142Y-127452380D01*
X110918809Y-127452380D02*
X111395000Y-127452380D01*
X111395000Y-126452380D01*
X110014047Y-127357142D02*
X110061666Y-127404761D01*
X110204523Y-127452380D01*
X110299761Y-127452380D01*
X110442619Y-127404761D01*
X110537857Y-127309523D01*
X110585476Y-127214285D01*
X110633095Y-127023809D01*
X110633095Y-126880952D01*
X110585476Y-126690476D01*
X110537857Y-126595238D01*
X110442619Y-126500000D01*
X110299761Y-126452380D01*
X110204523Y-126452380D01*
X110061666Y-126500000D01*
X110014047Y-126547619D01*
X109299761Y-126452380D02*
X109299761Y-127166666D01*
X109347380Y-127309523D01*
X109442619Y-127404761D01*
X109585476Y-127452380D01*
X109680714Y-127452380D01*
X108347380Y-127452380D02*
X108823571Y-127452380D01*
X108823571Y-126452380D01*
X107442619Y-127357142D02*
X107490238Y-127404761D01*
X107633095Y-127452380D01*
X107728333Y-127452380D01*
X107871190Y-127404761D01*
X107966428Y-127309523D01*
X108014047Y-127214285D01*
X108061666Y-127023809D01*
X108061666Y-126880952D01*
X108014047Y-126690476D01*
X107966428Y-126595238D01*
X107871190Y-126500000D01*
X107728333Y-126452380D01*
X107633095Y-126452380D01*
X107490238Y-126500000D01*
X107442619Y-126547619D01*
D12*
X85256666Y-124912380D02*
X85590000Y-124436190D01*
X85828095Y-124912380D02*
X85828095Y-123912380D01*
X85447142Y-123912380D01*
X85351904Y-123960000D01*
X85304285Y-124007619D01*
X85256666Y-124102857D01*
X85256666Y-124245714D01*
X85304285Y-124340952D01*
X85351904Y-124388571D01*
X85447142Y-124436190D01*
X85828095Y-124436190D01*
X84923333Y-123912380D02*
X84256666Y-124912380D01*
X84256666Y-123912380D02*
X84923333Y-124912380D01*
D11*
%TO.C,J4*%
X93307333Y-48147380D02*
X93307333Y-48861666D01*
X93354952Y-49004523D01*
X93450190Y-49099761D01*
X93593047Y-49147380D01*
X93688285Y-49147380D01*
X92402571Y-48480714D02*
X92402571Y-49147380D01*
X92640666Y-48099761D02*
X92878761Y-48814047D01*
X92259714Y-48814047D01*
%TO.C,SW3*%
X134484761Y-79946666D02*
X134532380Y-80089523D01*
X134532380Y-80327619D01*
X134484761Y-80422857D01*
X134437142Y-80470476D01*
X134341904Y-80518095D01*
X134246666Y-80518095D01*
X134151428Y-80470476D01*
X134103809Y-80422857D01*
X134056190Y-80327619D01*
X134008571Y-80137142D01*
X133960952Y-80041904D01*
X133913333Y-79994285D01*
X133818095Y-79946666D01*
X133722857Y-79946666D01*
X133627619Y-79994285D01*
X133580000Y-80041904D01*
X133532380Y-80137142D01*
X133532380Y-80375238D01*
X133580000Y-80518095D01*
X133532380Y-80851428D02*
X134532380Y-81089523D01*
X133818095Y-81280000D01*
X134532380Y-81470476D01*
X133532380Y-81708571D01*
X133532380Y-81994285D02*
X133532380Y-82613333D01*
X133913333Y-82280000D01*
X133913333Y-82422857D01*
X133960952Y-82518095D01*
X134008571Y-82565714D01*
X134103809Y-82613333D01*
X134341904Y-82613333D01*
X134437142Y-82565714D01*
X134484761Y-82518095D01*
X134532380Y-82422857D01*
X134532380Y-82137142D01*
X134484761Y-82041904D01*
X134437142Y-81994285D01*
%TO.C,J3*%
X82883333Y-106342380D02*
X82883333Y-107056666D01*
X82930952Y-107199523D01*
X83026190Y-107294761D01*
X83169047Y-107342380D01*
X83264285Y-107342380D01*
X82502380Y-106342380D02*
X81883333Y-106342380D01*
X82216666Y-106723333D01*
X82073809Y-106723333D01*
X81978571Y-106770952D01*
X81930952Y-106818571D01*
X81883333Y-106913809D01*
X81883333Y-107151904D01*
X81930952Y-107247142D01*
X81978571Y-107294761D01*
X82073809Y-107342380D01*
X82359523Y-107342380D01*
X82454761Y-107294761D01*
X82502380Y-107247142D01*
%TO.C,C8*%
X92461142Y-64587919D02*
X92508761Y-64540300D01*
X92556380Y-64397443D01*
X92556380Y-64302205D01*
X92508761Y-64159347D01*
X92413523Y-64064109D01*
X92318285Y-64016490D01*
X92127809Y-63968871D01*
X91984952Y-63968871D01*
X91794476Y-64016490D01*
X91699238Y-64064109D01*
X91604000Y-64159347D01*
X91556380Y-64302205D01*
X91556380Y-64397443D01*
X91604000Y-64540300D01*
X91651619Y-64587919D01*
X91984952Y-65159347D02*
X91937333Y-65064109D01*
X91889714Y-65016490D01*
X91794476Y-64968871D01*
X91746857Y-64968871D01*
X91651619Y-65016490D01*
X91604000Y-65064109D01*
X91556380Y-65159347D01*
X91556380Y-65349824D01*
X91604000Y-65445062D01*
X91651619Y-65492681D01*
X91746857Y-65540300D01*
X91794476Y-65540300D01*
X91889714Y-65492681D01*
X91937333Y-65445062D01*
X91984952Y-65349824D01*
X91984952Y-65159347D01*
X92032571Y-65064109D01*
X92080190Y-65016490D01*
X92175428Y-64968871D01*
X92365904Y-64968871D01*
X92461142Y-65016490D01*
X92508761Y-65064109D01*
X92556380Y-65159347D01*
X92556380Y-65349824D01*
X92508761Y-65445062D01*
X92461142Y-65492681D01*
X92365904Y-65540300D01*
X92175428Y-65540300D01*
X92080190Y-65492681D01*
X92032571Y-65445062D01*
X91984952Y-65349824D01*
%TO.C,SW4*%
X125259761Y-114871666D02*
X125307380Y-115014523D01*
X125307380Y-115252619D01*
X125259761Y-115347857D01*
X125212142Y-115395476D01*
X125116904Y-115443095D01*
X125021666Y-115443095D01*
X124926428Y-115395476D01*
X124878809Y-115347857D01*
X124831190Y-115252619D01*
X124783571Y-115062142D01*
X124735952Y-114966904D01*
X124688333Y-114919285D01*
X124593095Y-114871666D01*
X124497857Y-114871666D01*
X124402619Y-114919285D01*
X124355000Y-114966904D01*
X124307380Y-115062142D01*
X124307380Y-115300238D01*
X124355000Y-115443095D01*
X124307380Y-115776428D02*
X125307380Y-116014523D01*
X124593095Y-116205000D01*
X125307380Y-116395476D01*
X124307380Y-116633571D01*
X124640714Y-117443095D02*
X125307380Y-117443095D01*
X124259761Y-117205000D02*
X124974047Y-116966904D01*
X124974047Y-117585952D01*
%TO.C,R2*%
X74334666Y-57348380D02*
X74668000Y-56872190D01*
X74906095Y-57348380D02*
X74906095Y-56348380D01*
X74525142Y-56348380D01*
X74429904Y-56396000D01*
X74382285Y-56443619D01*
X74334666Y-56538857D01*
X74334666Y-56681714D01*
X74382285Y-56776952D01*
X74429904Y-56824571D01*
X74525142Y-56872190D01*
X74906095Y-56872190D01*
X73953714Y-56443619D02*
X73906095Y-56396000D01*
X73810857Y-56348380D01*
X73572761Y-56348380D01*
X73477523Y-56396000D01*
X73429904Y-56443619D01*
X73382285Y-56538857D01*
X73382285Y-56634095D01*
X73429904Y-56776952D01*
X74001333Y-57348380D01*
X73382285Y-57348380D01*
%TO.C,C7*%
X101512666Y-58269142D02*
X101560285Y-58316761D01*
X101703142Y-58364380D01*
X101798380Y-58364380D01*
X101941238Y-58316761D01*
X102036476Y-58221523D01*
X102084095Y-58126285D01*
X102131714Y-57935809D01*
X102131714Y-57792952D01*
X102084095Y-57602476D01*
X102036476Y-57507238D01*
X101941238Y-57412000D01*
X101798380Y-57364380D01*
X101703142Y-57364380D01*
X101560285Y-57412000D01*
X101512666Y-57459619D01*
X101179333Y-57364380D02*
X100512666Y-57364380D01*
X100941238Y-58364380D01*
%TO.C,SW2*%
X143279761Y-90741666D02*
X143327380Y-90884523D01*
X143327380Y-91122619D01*
X143279761Y-91217857D01*
X143232142Y-91265476D01*
X143136904Y-91313095D01*
X143041666Y-91313095D01*
X142946428Y-91265476D01*
X142898809Y-91217857D01*
X142851190Y-91122619D01*
X142803571Y-90932142D01*
X142755952Y-90836904D01*
X142708333Y-90789285D01*
X142613095Y-90741666D01*
X142517857Y-90741666D01*
X142422619Y-90789285D01*
X142375000Y-90836904D01*
X142327380Y-90932142D01*
X142327380Y-91170238D01*
X142375000Y-91313095D01*
X142327380Y-91646428D02*
X143327380Y-91884523D01*
X142613095Y-92075000D01*
X143327380Y-92265476D01*
X142327380Y-92503571D01*
X142422619Y-92836904D02*
X142375000Y-92884523D01*
X142327380Y-92979761D01*
X142327380Y-93217857D01*
X142375000Y-93313095D01*
X142422619Y-93360714D01*
X142517857Y-93408333D01*
X142613095Y-93408333D01*
X142755952Y-93360714D01*
X143327380Y-92789285D01*
X143327380Y-93408333D01*
%TO.C,C4*%
X85002666Y-55221142D02*
X85050285Y-55268761D01*
X85193142Y-55316380D01*
X85288380Y-55316380D01*
X85431238Y-55268761D01*
X85526476Y-55173523D01*
X85574095Y-55078285D01*
X85621714Y-54887809D01*
X85621714Y-54744952D01*
X85574095Y-54554476D01*
X85526476Y-54459238D01*
X85431238Y-54364000D01*
X85288380Y-54316380D01*
X85193142Y-54316380D01*
X85050285Y-54364000D01*
X85002666Y-54411619D01*
X84145523Y-54649714D02*
X84145523Y-55316380D01*
X84383619Y-54268761D02*
X84621714Y-54983047D01*
X84002666Y-54983047D01*
%TO.C,J2*%
X77803333Y-126452380D02*
X77803333Y-127166666D01*
X77850952Y-127309523D01*
X77946190Y-127404761D01*
X78089047Y-127452380D01*
X78184285Y-127452380D01*
X77374761Y-126547619D02*
X77327142Y-126500000D01*
X77231904Y-126452380D01*
X76993809Y-126452380D01*
X76898571Y-126500000D01*
X76850952Y-126547619D01*
X76803333Y-126642857D01*
X76803333Y-126738095D01*
X76850952Y-126880952D01*
X77422380Y-127452380D01*
X76803333Y-127452380D01*
%TO.C,R3*%
X72302666Y-57348380D02*
X72636000Y-56872190D01*
X72874095Y-57348380D02*
X72874095Y-56348380D01*
X72493142Y-56348380D01*
X72397904Y-56396000D01*
X72350285Y-56443619D01*
X72302666Y-56538857D01*
X72302666Y-56681714D01*
X72350285Y-56776952D01*
X72397904Y-56824571D01*
X72493142Y-56872190D01*
X72874095Y-56872190D01*
X71969333Y-56348380D02*
X71350285Y-56348380D01*
X71683619Y-56729333D01*
X71540761Y-56729333D01*
X71445523Y-56776952D01*
X71397904Y-56824571D01*
X71350285Y-56919809D01*
X71350285Y-57157904D01*
X71397904Y-57253142D01*
X71445523Y-57300761D01*
X71540761Y-57348380D01*
X71826476Y-57348380D01*
X71921714Y-57300761D01*
X71969333Y-57253142D01*
%TO.C,C2*%
X87542666Y-71321142D02*
X87590285Y-71368761D01*
X87733142Y-71416380D01*
X87828380Y-71416380D01*
X87971238Y-71368761D01*
X88066476Y-71273523D01*
X88114095Y-71178285D01*
X88161714Y-70987809D01*
X88161714Y-70844952D01*
X88114095Y-70654476D01*
X88066476Y-70559238D01*
X87971238Y-70464000D01*
X87828380Y-70416380D01*
X87733142Y-70416380D01*
X87590285Y-70464000D01*
X87542666Y-70511619D01*
X87161714Y-70511619D02*
X87114095Y-70464000D01*
X87018857Y-70416380D01*
X86780761Y-70416380D01*
X86685523Y-70464000D01*
X86637904Y-70511619D01*
X86590285Y-70606857D01*
X86590285Y-70702095D01*
X86637904Y-70844952D01*
X87209333Y-71416380D01*
X86590285Y-71416380D01*
%TO.C,C3*%
X87225142Y-64864585D02*
X87272761Y-64816966D01*
X87320380Y-64674109D01*
X87320380Y-64578871D01*
X87272761Y-64436013D01*
X87177523Y-64340775D01*
X87082285Y-64293156D01*
X86891809Y-64245537D01*
X86748952Y-64245537D01*
X86558476Y-64293156D01*
X86463238Y-64340775D01*
X86368000Y-64436013D01*
X86320380Y-64578871D01*
X86320380Y-64674109D01*
X86368000Y-64816966D01*
X86415619Y-64864585D01*
X86320380Y-65197918D02*
X86320380Y-65816966D01*
X86701333Y-65483632D01*
X86701333Y-65626490D01*
X86748952Y-65721728D01*
X86796571Y-65769347D01*
X86891809Y-65816966D01*
X87129904Y-65816966D01*
X87225142Y-65769347D01*
X87272761Y-65721728D01*
X87320380Y-65626490D01*
X87320380Y-65340775D01*
X87272761Y-65245537D01*
X87225142Y-65197918D01*
%TO.C,SW1*%
X134484761Y-101536666D02*
X134532380Y-101679523D01*
X134532380Y-101917619D01*
X134484761Y-102012857D01*
X134437142Y-102060476D01*
X134341904Y-102108095D01*
X134246666Y-102108095D01*
X134151428Y-102060476D01*
X134103809Y-102012857D01*
X134056190Y-101917619D01*
X134008571Y-101727142D01*
X133960952Y-101631904D01*
X133913333Y-101584285D01*
X133818095Y-101536666D01*
X133722857Y-101536666D01*
X133627619Y-101584285D01*
X133580000Y-101631904D01*
X133532380Y-101727142D01*
X133532380Y-101965238D01*
X133580000Y-102108095D01*
X133532380Y-102441428D02*
X134532380Y-102679523D01*
X133818095Y-102870000D01*
X134532380Y-103060476D01*
X133532380Y-103298571D01*
X134532380Y-104203333D02*
X134532380Y-103631904D01*
X134532380Y-103917619D02*
X133532380Y-103917619D01*
X133675238Y-103822380D01*
X133770476Y-103727142D01*
X133818095Y-103631904D01*
%TO.C,JP1*%
X100655333Y-54824380D02*
X100655333Y-55538666D01*
X100702952Y-55681523D01*
X100798190Y-55776761D01*
X100941047Y-55824380D01*
X101036285Y-55824380D01*
X100179142Y-55824380D02*
X100179142Y-54824380D01*
X99798190Y-54824380D01*
X99702952Y-54872000D01*
X99655333Y-54919619D01*
X99607714Y-55014857D01*
X99607714Y-55157714D01*
X99655333Y-55252952D01*
X99702952Y-55300571D01*
X99798190Y-55348190D01*
X100179142Y-55348190D01*
X98655333Y-55824380D02*
X99226761Y-55824380D01*
X98941047Y-55824380D02*
X98941047Y-54824380D01*
X99036285Y-54967238D01*
X99131523Y-55062476D01*
X99226761Y-55110095D01*
%TO.C,C1*%
X86653666Y-130405142D02*
X86701285Y-130452761D01*
X86844142Y-130500380D01*
X86939380Y-130500380D01*
X87082238Y-130452761D01*
X87177476Y-130357523D01*
X87225095Y-130262285D01*
X87272714Y-130071809D01*
X87272714Y-129928952D01*
X87225095Y-129738476D01*
X87177476Y-129643238D01*
X87082238Y-129548000D01*
X86939380Y-129500380D01*
X86844142Y-129500380D01*
X86701285Y-129548000D01*
X86653666Y-129595619D01*
X85701285Y-130500380D02*
X86272714Y-130500380D01*
X85987000Y-130500380D02*
X85987000Y-129500380D01*
X86082238Y-129643238D01*
X86177476Y-129738476D01*
X86272714Y-129786095D01*
%TO.C,U3*%
X93217904Y-120864380D02*
X93217904Y-121673904D01*
X93170285Y-121769142D01*
X93122666Y-121816761D01*
X93027428Y-121864380D01*
X92836952Y-121864380D01*
X92741714Y-121816761D01*
X92694095Y-121769142D01*
X92646476Y-121673904D01*
X92646476Y-120864380D01*
X92265523Y-120864380D02*
X91646476Y-120864380D01*
X91979809Y-121245333D01*
X91836952Y-121245333D01*
X91741714Y-121292952D01*
X91694095Y-121340571D01*
X91646476Y-121435809D01*
X91646476Y-121673904D01*
X91694095Y-121769142D01*
X91741714Y-121816761D01*
X91836952Y-121864380D01*
X92122666Y-121864380D01*
X92217904Y-121816761D01*
X92265523Y-121769142D01*
%TO.C,U2*%
X87629904Y-53808380D02*
X87629904Y-54617904D01*
X87582285Y-54713142D01*
X87534666Y-54760761D01*
X87439428Y-54808380D01*
X87248952Y-54808380D01*
X87153714Y-54760761D01*
X87106095Y-54713142D01*
X87058476Y-54617904D01*
X87058476Y-53808380D01*
X86629904Y-53903619D02*
X86582285Y-53856000D01*
X86487047Y-53808380D01*
X86248952Y-53808380D01*
X86153714Y-53856000D01*
X86106095Y-53903619D01*
X86058476Y-53998857D01*
X86058476Y-54094095D01*
X86106095Y-54236952D01*
X86677523Y-54808380D01*
X86058476Y-54808380D01*
%TO.C,C5*%
X89066666Y-126722142D02*
X89114285Y-126769761D01*
X89257142Y-126817380D01*
X89352380Y-126817380D01*
X89495238Y-126769761D01*
X89590476Y-126674523D01*
X89638095Y-126579285D01*
X89685714Y-126388809D01*
X89685714Y-126245952D01*
X89638095Y-126055476D01*
X89590476Y-125960238D01*
X89495238Y-125865000D01*
X89352380Y-125817380D01*
X89257142Y-125817380D01*
X89114285Y-125865000D01*
X89066666Y-125912619D01*
X88161904Y-125817380D02*
X88638095Y-125817380D01*
X88685714Y-126293571D01*
X88638095Y-126245952D01*
X88542857Y-126198333D01*
X88304761Y-126198333D01*
X88209523Y-126245952D01*
X88161904Y-126293571D01*
X88114285Y-126388809D01*
X88114285Y-126626904D01*
X88161904Y-126722142D01*
X88209523Y-126769761D01*
X88304761Y-126817380D01*
X88542857Y-126817380D01*
X88638095Y-126769761D01*
X88685714Y-126722142D01*
%TO.C,Q1*%
X77311238Y-57599619D02*
X77406476Y-57552000D01*
X77501714Y-57456761D01*
X77644571Y-57313904D01*
X77739809Y-57266285D01*
X77835047Y-57266285D01*
X77787428Y-57504380D02*
X77882666Y-57456761D01*
X77977904Y-57361523D01*
X78025523Y-57171047D01*
X78025523Y-56837714D01*
X77977904Y-56647238D01*
X77882666Y-56552000D01*
X77787428Y-56504380D01*
X77596952Y-56504380D01*
X77501714Y-56552000D01*
X77406476Y-56647238D01*
X77358857Y-56837714D01*
X77358857Y-57171047D01*
X77406476Y-57361523D01*
X77501714Y-57456761D01*
X77596952Y-57504380D01*
X77787428Y-57504380D01*
X76406476Y-57504380D02*
X76977904Y-57504380D01*
X76692190Y-57504380D02*
X76692190Y-56504380D01*
X76787428Y-56647238D01*
X76882666Y-56742476D01*
X76977904Y-56790095D01*
%TO.C,R1*%
X88050666Y-124912380D02*
X88384000Y-124436190D01*
X88622095Y-124912380D02*
X88622095Y-123912380D01*
X88241142Y-123912380D01*
X88145904Y-123960000D01*
X88098285Y-124007619D01*
X88050666Y-124102857D01*
X88050666Y-124245714D01*
X88098285Y-124340952D01*
X88145904Y-124388571D01*
X88241142Y-124436190D01*
X88622095Y-124436190D01*
X87098285Y-124912380D02*
X87669714Y-124912380D01*
X87384000Y-124912380D02*
X87384000Y-123912380D01*
X87479238Y-124055238D01*
X87574476Y-124150476D01*
X87669714Y-124198095D01*
%TO.C,U1*%
X92022380Y-68453095D02*
X92831904Y-68453095D01*
X92927142Y-68500714D01*
X92974761Y-68548333D01*
X93022380Y-68643571D01*
X93022380Y-68834047D01*
X92974761Y-68929285D01*
X92927142Y-68976904D01*
X92831904Y-69024523D01*
X92022380Y-69024523D01*
X93022380Y-70024523D02*
X93022380Y-69453095D01*
X93022380Y-69738809D02*
X92022380Y-69738809D01*
X92165238Y-69643571D01*
X92260476Y-69548333D01*
X92308095Y-69453095D01*
%TO.C,J1*%
X96345333Y-130826380D02*
X96345333Y-131540666D01*
X96392952Y-131683523D01*
X96488190Y-131778761D01*
X96631047Y-131826380D01*
X96726285Y-131826380D01*
X95345333Y-131826380D02*
X95916761Y-131826380D01*
X95631047Y-131826380D02*
X95631047Y-130826380D01*
X95726285Y-130969238D01*
X95821523Y-131064476D01*
X95916761Y-131112095D01*
D13*
%TO.C,J4*%
X93099000Y-47695000D02*
X93301470Y-47695000D01*
X93099000Y-47563471D02*
X93099000Y-47695000D01*
X91209000Y-46240000D02*
X91209000Y-41225000D01*
X94739000Y-47695000D02*
X94739000Y-41225000D01*
X91209000Y-47760000D02*
X92339000Y-47760000D01*
X93099000Y-46293471D02*
X93099000Y-46436529D01*
X91209000Y-47000000D02*
X91209000Y-47760000D01*
X91209000Y-46240000D02*
X91775529Y-46240000D01*
X91209000Y-41225000D02*
X92031470Y-41225000D01*
X92902471Y-46240000D02*
X93045529Y-46240000D01*
X93916530Y-41225000D02*
X94739000Y-41225000D01*
X93916530Y-47695000D02*
X94739000Y-47695000D01*
X92646530Y-41225000D02*
X93301470Y-41225000D01*
%TO.C,SW3*%
X141660000Y-78050000D02*
X141660000Y-84510000D01*
X137130000Y-78050000D02*
X139730000Y-78050000D01*
X135230000Y-78050000D02*
X135200000Y-78050000D01*
X141660000Y-78050000D02*
X141630000Y-78050000D01*
X141660000Y-84510000D02*
X141630000Y-84510000D01*
X135200000Y-78050000D02*
X135200000Y-84510000D01*
X137130000Y-84510000D02*
X139730000Y-84510000D01*
X135200000Y-84510000D02*
X135230000Y-84510000D01*
%TO.C,J3*%
X83880000Y-110490000D02*
X83880000Y-113090000D01*
X81220000Y-110490000D02*
X81220000Y-113090000D01*
X83880000Y-109220000D02*
X83880000Y-107890000D01*
X83880000Y-113090000D02*
X81220000Y-113090000D01*
X83880000Y-110490000D02*
X81220000Y-110490000D01*
X83880000Y-107890000D02*
X82550000Y-107890000D01*
%TO.C,C8*%
X89689000Y-65015838D02*
X89689000Y-64493334D01*
X91159000Y-65015838D02*
X91159000Y-64493334D01*
%TO.C,SW4*%
X125675000Y-112975000D02*
X125675000Y-119435000D01*
X132135000Y-119435000D02*
X132105000Y-119435000D01*
X132135000Y-112975000D02*
X132135000Y-119435000D01*
X125675000Y-119435000D02*
X125705000Y-119435000D01*
X127605000Y-112975000D02*
X130205000Y-112975000D01*
X132135000Y-112975000D02*
X132105000Y-112975000D01*
X125705000Y-112975000D02*
X125675000Y-112975000D01*
X127605000Y-119435000D02*
X130205000Y-119435000D01*
%TO.C,R2*%
X74903000Y-59224936D02*
X74903000Y-59679064D01*
X73433000Y-59224936D02*
X73433000Y-59679064D01*
%TO.C,C7*%
X97528748Y-57177000D02*
X98051252Y-57177000D01*
X97528748Y-58647000D02*
X98051252Y-58647000D01*
%TO.C,SW2*%
X135230000Y-88845000D02*
X135200000Y-88845000D01*
X135200000Y-88845000D02*
X135200000Y-95305000D01*
X137130000Y-95305000D02*
X139730000Y-95305000D01*
X137130000Y-88845000D02*
X139730000Y-88845000D01*
X141660000Y-88845000D02*
X141660000Y-95305000D01*
X141660000Y-88845000D02*
X141630000Y-88845000D01*
X141660000Y-95305000D02*
X141630000Y-95305000D01*
X135200000Y-95305000D02*
X135230000Y-95305000D01*
%TO.C,C4*%
X84101000Y-57665252D02*
X84101000Y-57142748D01*
X85571000Y-57665252D02*
X85571000Y-57142748D01*
%TO.C,J2*%
X83805000Y-128330000D02*
X83805000Y-125670000D01*
X85075000Y-128330000D02*
X86405000Y-128330000D01*
X83805000Y-128330000D02*
X78665000Y-128330000D01*
X86405000Y-128330000D02*
X86405000Y-127000000D01*
X83805000Y-125670000D02*
X78665000Y-125670000D01*
X78665000Y-128330000D02*
X78665000Y-125670000D01*
%TO.C,R3*%
X72871000Y-59224936D02*
X72871000Y-59679064D01*
X71401000Y-59224936D02*
X71401000Y-59679064D01*
%TO.C,C2*%
X88653252Y-73379000D02*
X88130748Y-73379000D01*
X88653252Y-71909000D02*
X88130748Y-71909000D01*
%TO.C,C3*%
X87657000Y-65031252D02*
X87657000Y-64508748D01*
X89127000Y-65031252D02*
X89127000Y-64508748D01*
%TO.C,SW1*%
X135230000Y-99640000D02*
X135200000Y-99640000D01*
X141660000Y-106100000D02*
X141630000Y-106100000D01*
X141660000Y-99640000D02*
X141660000Y-106100000D01*
X137130000Y-99640000D02*
X139730000Y-99640000D01*
X137130000Y-106100000D02*
X139730000Y-106100000D01*
X141660000Y-99640000D02*
X141630000Y-99640000D01*
X135200000Y-106100000D02*
X135230000Y-106100000D01*
X135200000Y-99640000D02*
X135200000Y-106100000D01*
%TO.C,JP1*%
X98682000Y-54910000D02*
X98682000Y-54310000D01*
X96582000Y-55610000D02*
X97982000Y-55610000D01*
X95882000Y-54310000D02*
X95882000Y-54910000D01*
X97982000Y-53610000D02*
X96582000Y-53610000D01*
X95882000Y-54910000D02*
G75*
G03*
X96582000Y-55610000I699999J-1D01*
G01*
X96582000Y-53610000D02*
G75*
G03*
X95882000Y-54310000I-1J-699999D01*
G01*
X98682000Y-54310000D02*
G75*
G03*
X97982000Y-53610000I-700000J0D01*
G01*
X97982000Y-55610000D02*
G75*
G03*
X98682000Y-54910000I0J700000D01*
G01*
%TO.C,C1*%
X89796252Y-130783000D02*
X89273748Y-130783000D01*
X89796252Y-129313000D02*
X89273748Y-129313000D01*
%TO.C,U3*%
X93902000Y-121334000D02*
X93902000Y-122059000D01*
X93902000Y-125554000D02*
X93902000Y-124829000D01*
X94627000Y-125554000D02*
X93902000Y-125554000D01*
X94627000Y-121334000D02*
X93902000Y-121334000D01*
X98122000Y-125554000D02*
X98122000Y-124829000D01*
X97397000Y-121334000D02*
X98122000Y-121334000D01*
X97397000Y-125554000D02*
X98122000Y-125554000D01*
%TO.C,U2*%
X90424000Y-55543000D02*
X88224000Y-55543000D01*
X90424000Y-62313000D02*
X92624000Y-62313000D01*
X90424000Y-55543000D02*
X94024000Y-55543000D01*
X90424000Y-62313000D02*
X88224000Y-62313000D01*
%TO.C,C5*%
X89161252Y-128751000D02*
X88638748Y-128751000D01*
X89161252Y-127281000D02*
X88638748Y-127281000D01*
%TO.C,Q1*%
X77216000Y-57892000D02*
X76566000Y-57892000D01*
X77216000Y-61012000D02*
X77866000Y-61012000D01*
X77216000Y-61012000D02*
X76566000Y-61012000D01*
X77216000Y-57892000D02*
X78891000Y-57892000D01*
%TO.C,R1*%
X90704936Y-123725000D02*
X91159064Y-123725000D01*
X90704936Y-125195000D02*
X91159064Y-125195000D01*
%TO.C,U1*%
X91730000Y-69215000D02*
X91730000Y-71015000D01*
X88610000Y-69215000D02*
X88610000Y-68415000D01*
X91730000Y-69215000D02*
X91730000Y-68415000D01*
X88610000Y-69215000D02*
X88610000Y-70015000D01*
%TO.C,J1*%
X91862000Y-126799000D02*
X94762000Y-126799000D01*
X94312000Y-129599000D02*
X94312000Y-130349000D01*
X98012000Y-130349000D02*
X100162000Y-130349000D01*
X94012000Y-130349000D02*
X91862000Y-130349000D01*
X100162000Y-126799000D02*
X97262000Y-126799000D01*
X100162000Y-130349000D02*
X100162000Y-126799000D01*
X91862000Y-130349000D02*
X91862000Y-126799000D01*
X94312000Y-130349000D02*
X94912000Y-130349000D01*
%TD*%
M02*
